<svg xmlns="http://www.w3.org/2000/svg" viewBox="0 0 32 32" fill="white">
  <path d="M16 2.9A13.1 13.1 0 0 0 2.9 16c0 2.3.6 4.6 1.8 6.6L2 30l7.6-2.5A13.1 13.1 0 1 0 16 2.9zm0 23.9a10.7 10.7 0 0 1-5.5-1.5l-.4-.2-4.5 1.5 1.5-4.4-.2-.5A10.7 10.7 0 1 1 16 26.8zm6-8.2c-.3-.2-1.9-.9-2.2-1s-.5-.2-.8.2-.9 1-1.1 1.2-.4.3-.7.1a8.8 8.8 0 0 1-2.6-1.6 9.7 9.7 0 0 1-1.8-2.2c-.2-.3 0-.5.1-.7.1-.1.3-.3.4-.5.1-.2.2-.3.3-.5.1-.2 0-.4 0-.6s-.8-1.9-1.1-2.6c-.3-.7-.6-.6-.8-.6h-.7c-.2 0-.6.1-.9.4-.3.3-1.2 1.2-1.2 2.9s1.3 3.4 1.5 3.6c.2.2 2.5 3.8 6.1 5.3.9.4 1.6.6 2.1.8.9.3 1.7.2 2.3.1.7-.1 1.9-.8 2.2-1.5.3-.7.3-1.4.2-1.5 0-.1-.3-.2-.6-.4z"/>
</svg>
